<?xml version="1.0" encoding="utf-8"?>
<!-- Generator: Adobe Illustrator 25.4.8, SVG Export Plug-In . SVG Version: 6.00 Build 0)  -->
<svg version="1.0" xmlns="http://www.w3.org/2000/svg" xmlns:xlink="http://www.w3.org/1999/xlink" x="0px" y="0px"
	 viewBox="0 0 7200 7200" style="enable-background:new 0 0 7200 7200;" xml:space="preserve">
<style type="text/css">
	.st0{display:none;}
	.st1{display:inline;}
	.st2{fill:#FFFFFF;}
</style>
<g id="percentile" class="st0">
	<g class="st1">
		<path class="st2" d="M614.35,5839.58c0-18.76,0-30.06,0-41.37c-0.03-1436.62,0.04-2873.24-0.2-4309.87
			c-0.04-228.48,1.02-457-3.54-685.4c-1.73-86.65-52.84-149.16-132.93-181.4c-79.64-32.06-154.75-20.03-222.01,36.68
			c-68.22,57.52-76.53,133.96-76.48,215.99c0.65,1182.34,0.51,2364.68,0.55,3547.02c0.03,775.73-0.05,1551.46,0.35,2327.18
			c0.02,31.38,0.16,63.84,7.66,93.95c27.36,109.83,115.99,171.33,241.15,171.33c1750.67-0.03,3501.33-0.05,5252-0.07
			c367.94,0,735.89,0.43,1103.83-0.25c145.31-0.27,237.31-114.25,233.52-234.56c-3.27-103.66-94.34-215.99-233.59-215.65
			c-810.88,2.03-1621.77,1-2432.65,1c-14.63,0-29.26,0-46.25,0c42.05-78.96,21.24-159.45,22.65-237.76
			c0.25-13.89-8.86-28.97-16.5-41.79c-21.25-35.65-63.93-52.63-103.01-42.75c-33.19,8.39-68.26,44.01-66.58,77.59
			c4.07,81.19-18.25,164.53,19.44,243.4c-373.73,0-745.96,0-1118.93,0c7.67-19.47,20.13-37.33,20.95-55.7
			c2.69-60.8,4.22-121.97,0.3-182.62c-3.02-46.62-48.24-83.08-93.19-83.84c-50.22-0.86-88.79,26.78-94.82,78.91
			c-9.42,81.43-19.28,164.07,14.91,242.57c-758.05,0-1515.77,0-2274.88,0c0-109.22,0-216.42,0-323.48
			c4.87-1.98,7.91-3.74,11.18-4.48c219.64-49.28,411.35-152.99,581.37-298.71c170.25-145.91,307.73-319.93,430.08-506.4
			c160.97-245.34,287.01-509.24,406.79-776.18c207.68-462.81,380.45-939.63,563.96-1412.13
			c107.05-275.63,219.58-548.92,367.51-805.64c104.94-182.11,226.56-351.83,394.38-483.33c149.06-116.8,297.85-123.03,448.25-7.3
			c74.53,57.35,143.26,124.37,205.63,194.95c144.16,163.14,247.59,353.25,340.94,548.4c162.79,340.36,286.85,696.5,422.29,1047.99
			c171.16,444.19,346.81,886.51,562.12,1311.78c141.98,280.42,308.74,543.75,529.14,770.61
			c204.81,210.81,444.69,359.86,733.47,425.25c64.27,14.55,125.84,12.44,178.05-33.6c112.7-99.39,75.52-274.75-68.44-327.4
			c-86.11-31.49-174.53-58.41-257.1-97.52c-214.18-101.46-371.21-269.49-508-457.54c-142.45-195.82-249.86-411.79-354.12-629.45
			c-234.9-490.42-426.22-998.69-618.38-1506.62c-131.47-347.5-272.34-690.8-465.14-1009.85
			c-116.87-193.39-255.4-369.34-435.94-508.48c-126.61-97.57-268.91-159.7-429.03-170.32c-214.45-14.23-400.38,60.78-564.39,195.4
			c-170.35,139.84-301.1,312.55-413.47,500.32c-181.36,303.06-314.91,628.27-441.28,956.67
			c-166.59,432.91-322.62,869.99-513.28,1293.35c-135.91,301.8-277.16,600.72-467.42,873.45
			c-135.74,194.58-297.84,359.88-515.21,463.49C700.65,5804.18,659.86,5820.06,614.35,5839.58z M2747.89,3330.32
			c-0.87,122.28,96.46,221.93,217.81,222.98c115.2,1,217.88-101.83,219.41-219.74c1.54-118.47-97.9-220.94-215.35-221.91
			C2841.97,3110.59,2748.8,3202.42,2747.89,3330.32z M4451.91,3330.73c0.65-121.65-94.84-215.58-215.46-220.08
			c-116.09-4.33-220.85,98.81-221.51,218.83c-0.66,119.06,101.24,222.83,218.9,223.69
			C4353.15,3554.04,4451.25,3453.98,4451.91,3330.73z M3065.62,4392.17c0-24.6,0.32-49.2-0.07-73.79
			c-0.83-52.76-39.28-97.92-86.9-102.55c-52.32-5.09-97.72,24.94-103.56,81.7c-6.52,63.36-5.91,128.5,0.94,191.86
			c6.03,55.8,50.02,82.91,105.86,77.87c43.51-3.93,82.25-48.83,83.58-97.78C3066.16,4443.73,3065.59,4417.94,3065.62,4392.17z
			 M3065.59,4898.29c0-26.89,0.79-53.81-0.17-80.67c-1.69-47.22-40.96-89.79-86.74-95.38c-48.01-5.86-96.76,24.22-101.85,74.77
			c-6.61,65.63-7.21,132.87-0.85,198.5c5.29,54.54,52.33,83.61,105.86,78.02c43.48-4.54,82.1-49.34,83.63-98.07
			C3066.28,4949.76,3065.61,4924.02,3065.59,4898.29z M3065.61,3889.4c0-26.95,0.71-53.92-0.15-80.85
			c-1.62-50.93-42.07-93.71-92.12-98.56c-43.18-4.18-92.22,28.91-96.82,77.76c-6.18,65.74-6.43,133.02,0.29,198.67
			c5.37,52.53,51.51,79.65,105.21,74.59c42.02-3.96,81.78-48.34,83.4-94.28C3066.32,3940.99,3065.58,3915.18,3065.61,3889.4z
			 M3065.62,5402.4c0-22.19,0.15-44.39-0.03-66.58c-0.47-58.93-40.35-105.39-92.19-107.56c-56.45-2.36-99.97,38.12-102.91,99.89
			c-2.39,50.11-2.35,100.51-0.06,150.63c2.77,60.58,45.05,102,98.76,101.01c54.31-1,95.87-47.17,96.41-107.32
			C3065.8,5449.12,3065.62,5425.76,3065.62,5402.4z M3065.61,5910.15c0-23.43,0.17-46.85-0.03-70.28
			c-0.51-57.88-39.47-103.12-90.56-105.39c-58.37-2.59-100.68,35.32-104.22,98.33c-2.83,50.21-2.54,100.79-0.15,151.04
			c2.86,59.96,47.17,103.52,99.28,101.99c54.46-1.59,95.23-47.94,95.67-108.93C3065.76,5954.66,3065.62,5932.41,3065.61,5910.15z
			 M4141.38,4392.66c0,24.55-0.08,49.09,0.02,73.64c0.23,57.56,34.6,98.73,84.29,101.08c55.58,2.63,101.87-37.03,104.56-94.08
			c2.53-53.65,2.22-107.58,0.06-161.26c-2.26-56.04-47.01-97.45-99.65-96.29c-53.34,1.17-88.88,40.84-89.23,99.76
			C4141.27,4341.23,4141.4,4366.95,4141.38,4392.66z M4141.4,4896.51c0,24.59,2.42,49.46-0.5,73.7
			c-6.25,51.87,41.3,103.27,86.65,103.74c55.25,0.58,99.94-38.34,102.57-96.91c2.37-52.58,2.41-105.43,0.1-158.01
			c-2.49-56.5-47.5-98.32-99.72-97.02c-53.89,1.34-88.97,42.36-89.1,104.25C4141.35,4849.68,4141.39,4873.09,4141.4,4896.51z
			 M4141.39,5401.99c0,25.75-0.08,51.51,0.02,77.26c0.22,57.51,36.82,98.6,89.45,100.54c49.87,1.85,96.6-39.75,99.28-93.4
			c2.69-53.71,2.52-107.76-0.05-161.48c-2.74-57.28-46.91-98.11-99.38-96.66c-54.43,1.5-89.19,41.75-89.33,103.51
			C4141.33,5355.17,4141.37,5378.58,4141.39,5401.99z M4141.39,3885.64c0,25.71-0.16,51.42,0.03,77.12
			c0.42,55.5,37.19,96.95,87.23,98.56c53.58,1.73,99.06-37.95,101.64-93.29c2.5-53.64,2.19-107.55,0.04-161.22
			c-2.21-55.18-50.3-99.94-100.04-96.97c-51.94,3.1-88.62,45.21-88.89,102.17C4141.29,3836.56,4141.39,3861.1,4141.39,3885.64z
			 M4141.39,5908.28c0,24.55-0.06,49.09,0.01,73.64c0.17,58.05,38.52,101.81,90.96,103.9c49.21,1.96,94.9-40.18,97.64-95.13
			c2.68-53.63,3.01-107.65-0.16-161.23c-3.5-59.27-47.76-97.31-103.87-95.01c-51.18,2.1-84.48,42.9-84.59,103.7
			C4141.34,5861.53,4141.38,5884.91,4141.39,5908.28z"/>
		<path d="M614.35,5839.58c45.5-19.52,86.3-35.39,125.7-54.18c217.38-103.62,379.47-268.92,515.21-463.49
			c190.26-272.73,331.51-571.64,467.42-873.45c190.65-423.36,346.69-860.44,513.28-1293.35
			c126.37-328.4,259.92-653.61,441.28-956.67c112.37-187.77,243.11-360.48,413.47-500.32c164.01-134.63,349.93-209.63,564.39-195.4
			c160.13,10.62,302.42,72.75,429.03,170.32c180.54,139.14,319.07,315.08,435.94,508.48c192.8,319.05,333.67,662.35,465.14,1009.85
			c192.16,507.93,383.48,1016.19,618.38,1506.62c104.25,217.65,211.67,433.63,354.12,629.45c136.79,188.05,293.82,356.08,508,457.54
			c82.57,39.12,170.99,66.03,257.1,97.52c143.96,52.65,181.14,228.02,68.44,327.4c-52.21,46.04-113.79,48.15-178.05,33.6
			c-288.78-65.38-528.66-214.44-733.47-425.25c-220.4-226.86-387.16-490.19-529.14-770.61
			c-215.31-425.27-390.96-867.58-562.12-1311.78c-135.44-351.49-259.5-707.64-422.29-1047.99
			c-93.34-195.15-196.78-385.26-340.94-548.4c-62.37-70.58-131.1-137.6-205.63-194.95c-150.39-115.73-299.18-109.5-448.25,7.3
			c-167.82,131.5-289.44,301.22-394.38,483.33c-147.93,256.71-260.46,530.01-367.51,805.64
			c-183.51,472.5-356.29,949.32-563.96,1412.13c-119.78,266.94-245.82,530.84-406.79,776.18
			c-122.35,186.48-259.83,360.49-430.08,506.4c-170.02,145.72-361.73,249.43-581.37,298.71c-3.27,0.73-6.31,2.49-11.18,4.48
			c0,107.05,0,214.26,0,323.48c759.11,0,1516.83,0,2274.88,0c-34.19-78.49-24.33-161.13-14.91-242.57
			c6.03-52.13,44.6-79.76,94.82-78.91c44.95,0.77,90.17,37.22,93.19,83.84c3.93,60.65,2.4,121.83-0.3,182.62
			c-0.81,18.37-13.28,36.23-20.95,55.7c372.97,0,745.2,0,1118.93,0c-37.69-78.87-15.37-162.21-19.44-243.4
			c-1.68-33.58,33.39-69.21,66.58-77.59c39.08-9.88,81.76,7.1,103.01,42.75c7.65,12.82,16.75,27.9,16.5,41.79
			c-1.41,78.31,19.4,158.8-22.65,237.76c16.99,0,31.62,0,46.25,0c810.88,0,1621.77,1.04,2432.65-1
			c139.25-0.35,230.32,111.99,233.59,215.65c3.79,120.31-88.2,234.29-233.52,234.56c-367.94,0.68-735.89,0.24-1103.83,0.25
			c-1750.67,0.02-3501.33,0.03-5252,0.07c-125.16,0-213.8-61.49-241.15-171.33c-7.5-30.11-7.64-62.57-7.66-93.95
			c-0.4-775.73-0.33-1551.46-0.35-2327.18c-0.04-1182.34,0.09-2364.68-0.55-3547.02c-0.04-82.03,8.26-158.47,76.48-215.99
			c67.26-56.71,142.37-68.73,222.01-36.68c80.09,32.24,131.2,94.75,132.93,181.4c4.55,228.4,3.5,456.93,3.54,685.4
			c0.24,1436.62,0.17,2873.24,0.2,4309.87C614.36,5809.51,614.35,5820.81,614.35,5839.58z"/>
		<path d="M2747.89,3330.32c0.91-127.9,94.08-219.73,221.86-218.67c117.45,0.98,216.89,103.44,215.35,221.91
			c-1.53,117.91-104.2,220.74-219.41,219.74C2844.35,3552.25,2747.02,3452.61,2747.89,3330.32z"/>
		<path d="M4451.91,3330.73c-0.65,123.25-98.75,223.31-218.07,222.44c-117.67-0.86-219.56-104.63-218.9-223.69
			c0.67-120.02,105.42-223.16,221.51-218.83C4357.06,3115.15,4452.55,3209.08,4451.91,3330.73z"/>
		<path d="M3065.6,4392.17c-0.02,25.77,0.56,51.55-0.14,77.31c-1.32,48.95-40.07,93.85-83.58,97.78
			c-55.84,5.04-99.83-22.07-105.86-77.87c-6.85-63.36-7.46-128.5-0.94-191.86c5.84-56.75,51.24-86.78,103.56-81.7
			c47.62,4.63,86.07,49.78,86.9,102.55C3065.94,4342.97,3065.62,4367.57,3065.6,4392.17z"/>
		<path d="M3065.6,4898.29c0.01,25.72,0.67,51.47-0.13,77.17c-1.53,48.73-40.15,93.52-83.63,98.07
			c-53.53,5.6-100.57-23.47-105.86-78.02c-6.36-65.62-5.76-132.86,0.85-198.5c5.09-50.55,53.83-80.63,101.85-74.77
			c45.78,5.59,85.05,48.16,86.74,95.38C3066.38,4844.48,3065.59,4871.4,3065.6,4898.29z"/>
		<path d="M3065.6,3889.4c-0.02,25.78,0.73,51.58-0.18,77.33c-1.62,45.95-41.37,90.32-83.4,94.28
			c-53.7,5.07-99.84-22.06-105.21-74.59c-6.71-65.65-6.47-132.93-0.29-198.67c4.6-48.85,53.64-81.94,96.82-77.76
			c50.05,4.84,90.49,47.63,92.12,98.56C3066.32,3835.48,3065.61,3862.45,3065.6,3889.4z"/>
		<path d="M3065.62,5402.4c0,23.36,0.17,46.72-0.03,70.08c-0.54,60.15-42.1,106.32-96.41,107.32
			c-53.71,0.99-95.99-40.43-98.76-101.01c-2.29-50.12-2.32-100.52,0.06-150.63c2.95-61.77,46.47-102.25,102.91-99.89
			c51.84,2.17,91.73,48.63,92.19,107.56C3065.77,5358.01,3065.62,5380.2,3065.62,5402.4z"/>
		<path d="M3065.62,5910.15c0,22.25,0.14,44.51-0.02,66.76c-0.45,60.99-41.22,107.33-95.67,108.93
			c-52.11,1.52-96.42-42.03-99.28-101.99c-2.4-50.25-2.68-100.83,0.15-151.04c3.55-63.01,45.85-100.92,104.22-98.33
			c51.09,2.27,90.05,47.51,90.56,105.39C3065.79,5863.3,3065.61,5886.73,3065.62,5910.15z"/>
		<path d="M4141.39,4392.66c0.01-25.72-0.12-51.43,0.03-77.15c0.35-58.92,35.89-98.59,89.23-99.76
			c52.64-1.16,97.39,40.25,99.65,96.29c2.16,53.68,2.47,107.61-0.06,161.26c-2.69,57.05-48.98,96.71-104.56,94.08
			c-49.69-2.35-84.07-43.53-84.29-101.08C4141.3,4441.75,4141.38,4417.21,4141.39,4392.66z"/>
		<path d="M4141.39,4896.51c0-23.42-0.04-46.83,0-70.25c0.13-61.89,35.21-102.91,89.1-104.25c52.22-1.3,97.23,40.53,99.72,97.02
			c2.31,52.58,2.27,105.43-0.1,158.01c-2.64,58.57-47.33,97.49-102.57,96.91c-45.34-0.48-92.89-51.87-86.65-103.74
			C4143.82,4945.97,4141.4,4921.09,4141.39,4896.51z"/>
		<path d="M4141.38,5401.99c-0.01-23.41-0.05-46.82,0-70.23c0.14-61.76,34.9-102,89.33-103.51c52.48-1.45,96.65,39.38,99.38,96.66
			c2.57,53.72,2.74,107.77,0.05,161.48c-2.68,53.65-49.42,95.25-99.28,93.4c-52.63-1.95-89.23-43.03-89.45-100.54
			C4141.31,5453.49,4141.39,5427.74,4141.38,5401.99z"/>
		<path d="M4141.39,3885.64c0-24.54-0.1-49.08,0.02-73.62c0.27-56.96,36.95-99.07,88.89-102.17c49.74-2.97,97.83,41.79,100.04,96.97
			c2.15,53.67,2.46,107.58-0.04,161.22c-2.58,55.34-48.06,95.02-101.64,93.29c-50.04-1.61-86.81-43.06-87.23-98.56
			C4141.22,3937.05,4141.39,3911.35,4141.39,3885.64z"/>
		<path d="M4141.38,5908.28c-0.01-23.38-0.04-46.76,0-70.13c0.11-60.81,33.41-101.6,84.59-103.7
			c56.11-2.3,100.37,35.75,103.87,95.01c3.17,53.58,2.84,107.6,0.16,161.23c-2.74,54.95-48.44,97.08-97.64,95.13
			c-52.44-2.08-90.79-45.85-90.96-103.9C4141.33,5957.38,4141.39,5932.83,4141.38,5908.28z"/>
	</g>
</g>
<g id="stderr" class="st0">
	<path class="st1" d="M620.67,6565.25c20.43,0,36.27,0,52.11,0c2039.03,0.01,4078.07,0.03,6117.1,0.01
		c137.25,0,231.87,101.62,228.4,245.63c-2.52,104.95-90.94,206.44-189.08,213.97c-46.72,3.58-93.79,2.69-140.7,2.69
		c-2069.91,0.09-4139.82,0.11-6209.73-0.25c-42.98-0.01-87.37,2.07-128.66-8.18c-106.45-26.42-170.94-119.7-170.92-236.33
		c0.17-930.83,0.36-1861.66,0.43-2792.49c0.07-1030.15-0.15-2060.29,0.57-3090.44c0.03-45.8,2.42-93.24,13.52-137.07
		c27.6-109,124.71-170.15,239.11-156.92c93.88,10.86,179.81,99.2,182.86,202.5c5.45,185.17,4.65,370.59,4.69,555.9
		c0.32,1717.35,0.26,3434.7,0.31,5152.05C620.67,6530.8,620.67,6545.27,620.67,6565.25z"/>
	<path class="st1" d="M3751.66,1247.08c0-133.53,0-264.8,0-398.17c15.62,0,28.96,0,42.3,0c128.44-0.05,256.89,0.26,385.33-0.51
		c21.71-0.13,44.4-2.85,64.86-7.92c76.15-18.86,128.94-79.46,115.64-130.28c-17.64-67.45-81.02-105.84-175.14-105.85
		c-396.45-0.04-792.9,0.12-1189.35-0.28c-38.97-0.04-72.58,7.23-101.35,25.48c-57.66,36.58-75.74,88.25-48.78,139.09
		c25.91,48.85,88.15,79.7,165.31,80.04c128.44,0.57,256.89,0.2,385.33,0.23c13.2,0,26.39,0,43,0c0,129.92,0.26,257.04-0.92,384.15
		l-0.56,298.5c0,395.98,0,782.23,0,1172.75c-16.3,0-29.57,0-42.84,0c-128.44,0.02-256.9-0.77-385.33,0.29
		c-133.8,1.11-217.73,90.86-162.91,173.68c35.99,54.36,101.85,73.75,183.6,73.71c377.92-0.2,755.85-0.04,1133.77-0.24
		c19.65-0.01,39.54-1.22,58.92-3.52c93.36-11.07,158.29-80.86,135.74-145.18c-21.52-61.39-88.24-98.53-178.57-98.7
		c-129.68-0.23-259.36-0.07-389.04-0.07c-13.03,0-26.05,0-38.96,0c0-390.98,0-778.33,0-1166.52L3751.66,1247.08z"/>
	<g class="st1">
		<path class="st2" d="M2892.19,6562.17c-758.05,0-1515.77,0-2274.88,0c0-109.22,0-216.42,0-323.48c4.87-1.98,7.91-3.74,11.18-4.48
			c219.64-49.28,411.35-152.99,581.37-298.71c170.25-145.91,307.73-319.93,430.08-506.4c160.97-245.34,287.01-509.24,406.79-776.18
			c207.68-462.81,380.45-939.63,563.96-1412.13c107.05-275.63,219.58-548.92,367.51-805.64
			c104.94-182.11,226.56-351.83,394.38-483.33c149.06-116.8,297.85-123.03,448.25-7.3c74.53,57.35,143.26,124.37,205.63,194.95
			c144.16,163.14,247.59,353.25,340.94,548.4c162.79,340.36,286.85,696.5,422.29,1047.99
			c171.16,444.19,346.81,886.51,562.12,1311.78c141.98,280.42,308.74,543.75,529.14,770.61
			c204.81,210.81,444.69,359.86,733.47,425.25c64.27,14.55,125.84,12.44,178.05-33.6c112.7-99.39,75.52-274.75-68.44-327.4
			c-86.11-31.49-174.53-58.41-257.1-97.52c-214.17-101.46-371.2-269.49-508-457.54c-142.45-195.82-249.86-411.79-354.12-629.45
			c-234.9-490.42-426.22-998.69-618.38-1506.62c-131.47-347.5-272.34-690.8-465.14-1009.85
			c-116.87-193.39-255.4-369.34-435.94-508.48c-126.61-97.57-268.91-159.7-429.03-170.32c-214.45-14.23-400.38,60.78-564.39,195.4
			c-170.35,139.84-301.1,312.55-413.47,500.32c-181.36,303.06-314.91,628.27-441.28,956.67
			c-166.59,432.91-322.62,869.99-513.28,1293.35c-135.91,301.8-277.16,600.72-467.42,873.45
			c-135.74,194.58-297.84,359.88-515.21,463.49c-39.41,18.78-80.2,34.66-125.7,54.18c0-18.76,0-30.06,0-41.37
			c-0.03-1436.62,0.04-2873.24-0.2-4309.87c-0.04-228.48,1.02-457-3.54-685.4C610.1,716.29,559,653.78,478.9,621.54
			c-79.64-32.06-154.75-20.03-222.01,36.68c-68.22,57.52-76.53,133.96-76.48,215.99c0.65,1182.34,0.51,2364.68,0.55,3547.02
			c0.03,775.73-0.05,1551.46,0.35,2327.18c0.02,31.38,0.16,63.84,7.66,93.95c27.36,109.83,115.99,171.33,241.15,171.33
			c1750.67-0.03,3501.33-0.05,5252-0.07c367.94,0,735.89,0.43,1103.83-0.25c145.32-0.27,237.31-114.25,233.52-234.56
			c-3.27-103.66-94.34-215.99-233.59-215.65c-810.88,2.03-1621.77,1-2432.65,1c-14.63,0-29.26,0-46.25,0 M4162.99,6562.86
			c-373.73,0-745.96,0-1118.93,0c7.67-19.47,20.13-37.33,20.95-55.7"/>
		<path d="M4306.98,6564.17c17,0,31.62,0,46.25,0c810.88,0,1621.77,1.04,2432.65-1c139.25-0.35,230.32,111.99,233.59,215.65
			c3.79,120.31-88.2,234.29-233.52,234.56c-367.94,0.68-735.89,0.24-1103.83,0.25c-1750.67,0.02-3501.33,0.03-5252,0.07
			c-125.16,0-213.8-61.49-241.15-171.33c-7.5-30.11-7.64-62.57-7.66-93.95c-0.4-775.73-0.33-1551.46-0.35-2327.18
			c-0.04-1182.34,0.09-2364.68-0.55-3547.02c-0.04-82.03,8.26-158.47,76.48-215.99c67.26-56.71,142.37-68.73,222.01-36.68
			c80.09,32.24,131.2,94.75,132.93,181.4c4.55,228.4,3.5,456.93,3.54,685.4c0.24,1436.62,0.17,2873.24,0.2,4309.87
			c0,11.3,0,22.6,0,41.37c45.5-19.52,86.3-35.39,125.7-54.18c217.38-103.62,379.47-268.92,515.21-463.49
			c190.26-272.73,331.51-571.64,467.42-873.45c190.65-423.36,346.69-860.44,513.28-1293.35
			c126.37-328.4,259.92-653.61,441.28-956.67c112.37-187.77,243.11-360.48,413.47-500.32c164.01-134.63,349.93-209.63,564.39-195.4
			c160.13,10.62,302.42,72.75,429.03,170.32c180.54,139.14,319.07,315.08,435.94,508.48c192.8,319.05,333.67,662.35,465.14,1009.85
			c192.16,507.93,383.48,1016.19,618.38,1506.62c104.25,217.65,211.67,433.63,354.12,629.45c136.8,188.05,293.83,356.08,508,457.54
			c82.57,39.12,170.99,66.03,257.1,97.52c143.96,52.65,181.14,228.02,68.44,327.4c-52.21,46.04-113.79,48.15-178.05,33.6
			c-288.78-65.38-528.66-214.44-733.47-425.25c-220.4-226.86-387.16-490.19-529.14-770.61
			c-215.31-425.27-390.96-867.58-562.12-1311.78c-135.44-351.49-259.5-707.64-422.29-1047.99
			c-93.34-195.15-196.78-385.26-340.94-548.4c-62.37-70.58-131.1-137.6-205.63-194.95c-150.39-115.73-299.18-109.5-448.25,7.3
			c-167.82,131.5-289.44,301.22-394.38,483.33c-147.93,256.71-260.46,530.01-367.51,805.64
			c-183.51,472.5-356.29,949.32-563.96,1412.13c-119.78,266.94-245.82,530.84-406.79,776.18
			c-122.35,186.48-259.83,360.49-430.08,506.4c-170.02,145.72-361.73,249.43-581.37,298.71c-3.27,0.73-6.31,2.49-11.18,4.48
			c0,107.05,0,214.26,0,323.48c759.11,0,1516.83,0,2274.88,0"/>
	</g>
</g>
<g id="mean">
	<g>
		<path class="st2" d="M2895.71,6569.11c-758.05,0-1515.77,0-2274.88,0c0-109.22,0-216.42,0-323.48c4.87-1.98,7.91-3.74,11.18-4.48
			c219.64-49.28,411.35-152.99,581.37-298.71c170.25-145.91,307.73-319.93,430.08-506.4c160.97-245.34,287.01-509.24,406.79-776.18
			c207.68-462.81,380.45-939.63,563.96-1412.13c107.05-275.63,219.58-548.92,367.51-805.64
			c104.94-182.11,226.56-351.83,394.38-483.33c149.06-116.8,297.85-123.03,448.25-7.3c74.53,57.35,143.26,124.37,205.63,194.95
			c144.16,163.14,247.59,353.25,340.94,548.4c162.79,340.36,286.85,696.5,422.29,1047.99
			c171.16,444.19,346.81,886.51,562.12,1311.78c141.98,280.42,308.74,543.75,529.14,770.61
			c204.81,210.81,444.69,359.86,733.47,425.25c64.27,14.55,125.84,12.44,178.05-33.6c112.7-99.39,75.52-274.75-68.44-327.4
			c-86.11-31.49-174.53-58.41-257.1-97.52c-214.18-101.46-371.21-269.49-508-457.54c-142.45-195.82-249.86-411.79-354.12-629.44
			c-234.9-490.42-426.22-998.69-618.38-1506.62c-131.47-347.5-272.34-690.8-465.14-1009.85
			c-116.87-193.39-255.4-369.34-435.94-508.48c-126.61-97.57-268.91-159.7-429.03-170.32c-214.45-14.23-400.38,60.78-564.39,195.4
			c-170.35,139.84-301.1,312.55-413.47,500.32c-181.36,303.06-314.91,628.27-441.28,956.67
			c-166.59,432.91-322.62,869.99-513.28,1293.35c-135.91,301.8-277.16,600.72-467.42,873.45
			c-135.74,194.58-297.84,359.88-515.21,463.49c-39.41,18.78-80.2,34.66-125.7,54.18c0-18.76,0-30.06,0-41.37
			c-0.03-1436.62,0.04-2873.24-0.2-4309.87c-0.04-228.48,1.02-457-3.54-685.4c-1.73-86.65-52.84-149.16-132.93-181.4
			c-79.64-32.06-154.75-20.03-222.01,36.68c-68.22,57.52-76.53,133.96-76.48,215.99c0.65,1182.34,0.51,2364.68,0.55,3547.02
			c0.03,775.73-0.05,1551.46,0.35,2327.19c0.02,31.38,0.16,63.84,7.66,93.95c27.36,109.83,115.99,171.33,241.15,171.33
			c1750.67-0.03,3501.33-0.05,5252-0.07c367.94,0,735.89,0.43,1103.83-0.25c145.32-0.27,237.31-114.25,233.52-234.56
			c-3.27-103.66-94.34-215.99-233.59-215.65c-810.88,2.03-1621.77,1-2432.65,1c-14.63,0-29.26,0-46.25,0 M4166.51,6569.81
			c-373.73,0-745.96,0-1118.93,0c7.67-19.47,20.13-37.33,20.95-55.7"/>
		<path d="M4310.5,6571.11c16.99,0,31.62,0,46.25,0c810.88,0,1621.77,1.04,2432.65-1c139.25-0.35,230.32,111.99,233.59,215.65
			c3.79,120.31-88.2,234.29-233.52,234.56c-367.94,0.68-735.89,0.24-1103.83,0.25c-1750.67,0.02-3501.33,0.03-5252,0.07
			c-125.16,0-213.8-61.49-241.15-171.33c-7.5-30.11-7.64-62.57-7.66-93.95c-0.4-775.73-0.33-1551.46-0.35-2327.19
			c-0.04-1182.34,0.09-2364.68-0.55-3547.02c-0.04-82.03,8.26-158.47,76.48-215.99c67.26-56.71,142.37-68.73,222.01-36.68
			c80.09,32.24,131.2,94.75,132.93,181.4c4.55,228.4,3.5,456.93,3.54,685.4c0.24,1436.62,0.17,2873.24,0.2,4309.87
			c0,11.3,0,22.6,0,41.37c45.5-19.52,86.3-35.39,125.7-54.18c217.38-103.62,379.47-268.92,515.21-463.49
			c190.26-272.73,331.51-571.64,467.42-873.45c190.65-423.36,346.69-860.44,513.28-1293.35
			c126.37-328.4,259.92-653.61,441.28-956.67c112.37-187.77,243.11-360.49,413.47-500.32c164.01-134.63,349.93-209.63,564.39-195.4
			c160.13,10.62,302.42,72.75,429.03,170.32c180.54,139.14,319.07,315.08,435.94,508.48c192.8,319.05,333.67,662.35,465.14,1009.85
			c192.16,507.93,383.48,1016.19,618.38,1506.62c104.25,217.65,211.67,433.63,354.12,629.44c136.79,188.05,293.82,356.08,508,457.54
			c82.57,39.12,170.99,66.03,257.1,97.52c143.96,52.65,181.14,228.02,68.44,327.4c-52.21,46.04-113.79,48.15-178.05,33.6
			c-288.78-65.38-528.66-214.44-733.47-425.25c-220.4-226.86-387.16-490.19-529.14-770.61
			c-215.31-425.27-390.96-867.58-562.12-1311.78c-135.44-351.49-259.5-707.64-422.29-1047.99
			c-93.34-195.15-196.78-385.26-340.94-548.4c-62.37-70.58-131.1-137.6-205.63-194.95c-150.39-115.73-299.18-109.5-448.25,7.3
			c-167.82,131.5-289.44,301.22-394.38,483.33c-147.93,256.71-260.46,530.01-367.51,805.64
			c-183.51,472.5-356.29,949.32-563.96,1412.13c-119.78,266.94-245.82,530.84-406.79,776.18
			c-122.35,186.48-259.83,360.49-430.08,506.4c-170.02,145.72-361.73,249.43-581.37,298.71c-3.27,0.73-6.31,2.49-11.18,4.48
			c0,107.05,0,214.26,0,323.48c759.11,0,1516.83,0,2274.88,0"/>
	</g>
	<g>
		<path d="M3519.67,1868.53c0,66.4-1.53,129.85,0.86,193.15c0.79,20.93,7.4,44.34,18.92,61.55c19.61,29.28,59.4,38.11,92.73,27.08
			c37.47-12.4,57.32-39.69,57.89-83.94v-197.84"/>
		<path d="M3519.6,2624.16c0-56.82-0.23-113.64,0.06-170.45c0.29-56.29,32.3-91.73,82.76-92.4c52.68-0.69,87.11,34.08,87.51,91.8
			c0.82,118.09,0.76,236.19,0.02,354.28c-0.31,49.54-33.42,81.83-81.17,82.42c-53.66,0.66-87.37-29.26-88.52-81.82
			c-1.34-61.25-0.31-122.54-0.31-183.82C3519.84,2624.16,3519.72,2624.16,3519.6,2624.16z"/>
		<path d="M3689.83,4113.96c0,57.91,0.67,115.84-0.19,173.74c-0.82,55.19-31.84,87.35-82.55,87.78
			c-54.02,0.46-86.74-30.8-87.17-86.84c-0.89-118.05-1.01-236.11-0.07-354.16c0.43-53.35,34.95-87.48,84.45-87.59
			c49.78-0.11,84.41,33.45,85.71,86.67c1.46,60.11,0.34,120.27,0.34,180.42C3690.18,4113.96,3690.01,4113.96,3689.83,4113.96z"/>
		<path d="M3519.66,4847.84c0.01-55.75-0.22-111.5,0.08-167.25c0.31-56.64,32-91.3,83.08-91.62c53.53-0.33,87.19,33.53,87.52,91.14
			c0.65,114.84,0.51,229.69-0.28,344.53c-0.39,56.54-34.13,92.01-84.49,91.75c-51.56-0.27-85.42-37.21-85.82-94.61
			C3519.32,4963.8,3519.64,4905.82,3519.66,4847.84z"/>
		<path d="M3519.67,3371.35c0.02-56.77-0.26-113.53,0.1-170.3c0.38-60.55,30.09-92.48,84.88-92.15
			c53.65,0.33,85.77,34.37,85.85,92.35c0.16,115.76,0.21,231.52-0.58,347.27c-0.27,40.31-22.58,70.35-56.95,81.37
			c-35.24,11.29-74.48,1.53-94.98-29.57c-10.84-16.45-16.74-38.76-17.55-58.72C3518.16,3484.95,3519.64,3428.12,3519.67,3371.35z"/>
		<path d="M3519.73,5586.22c0-55.69-0.45-111.38,0.12-167.06c0.6-57.93,30.49-88.99,84.45-89.18c52.39-0.18,85.23,32.44,85.7,88.83
			c0.92,112.48,0.83,224.98,0.11,337.47c-0.36,55.69-33.86,90.26-84.62,90.44c-50.56,0.18-84.73-34.87-85.65-90.09
			c-0.94-56.79-0.21-113.6-0.21-170.4C3519.66,5586.22,3519.7,5586.22,3519.73,5586.22z"/>
	</g>
</g>
<g id="std_dev" class="st0">
	<polygon class="st1" points="2629.95,6140.48 2629.95,2783.52 3359.72,1782.69 3713.16,1699.29 4277.15,2158.01 4527.35,2637.57 
		4527.35,6140.48 	"/>
	<g class="st1">
		<path class="st2" d="M2895.71,6569.11c-758.05,0-1515.77,0-2274.88,0c0-109.22,0-216.42,0-323.48c4.87-1.98,7.91-3.74,11.18-4.48
			c219.64-49.28,411.35-152.99,581.37-298.71c170.25-145.91,307.73-319.93,430.08-506.4c160.97-245.34,287.01-509.24,406.79-776.18
			c207.68-462.81,380.45-939.63,563.96-1412.13c107.05-275.63,219.58-548.92,367.51-805.64
			c104.94-182.11,226.56-351.83,394.38-483.33c149.06-116.8,297.85-123.03,448.25-7.3c74.53,57.35,143.26,124.37,205.63,194.95
			c144.16,163.14,247.59,353.25,340.94,548.4c162.79,340.36,286.85,696.5,422.29,1047.99
			c171.16,444.19,346.81,886.51,562.12,1311.78c141.98,280.42,308.74,543.75,529.14,770.61
			c204.81,210.81,444.69,359.86,733.47,425.25c64.27,14.55,125.84,12.44,178.05-33.6c112.7-99.39,75.52-274.75-68.44-327.4
			c-86.11-31.49-174.53-58.41-257.1-97.52c-214.18-101.46-371.21-269.49-508-457.54c-142.45-195.82-249.86-411.79-354.12-629.44
			c-234.9-490.42-426.22-998.69-618.38-1506.62c-131.47-347.5-272.34-690.8-465.14-1009.85
			c-116.87-193.39-255.4-369.34-435.94-508.48c-126.61-97.57-268.91-159.7-429.03-170.32c-214.45-14.23-400.38,60.78-564.39,195.4
			c-170.35,139.84-301.1,312.55-413.47,500.32c-181.36,303.06-314.91,628.27-441.28,956.67
			c-166.59,432.91-322.62,869.99-513.28,1293.35c-135.91,301.8-277.16,600.72-467.42,873.45
			c-135.74,194.58-297.84,359.88-515.21,463.49c-39.41,18.78-80.2,34.66-125.7,54.18c0-18.76,0-30.06,0-41.37
			c-0.03-1436.62,0.04-2873.24-0.2-4309.87c-0.04-228.48,1.02-457-3.54-685.4c-1.73-86.65-52.84-149.16-132.93-181.4
			c-79.64-32.06-154.75-20.03-222.01,36.68c-68.22,57.52-76.53,133.96-76.48,215.99c0.65,1182.34,0.51,2364.68,0.55,3547.02
			c0.03,775.73-0.05,1551.46,0.35,2327.19c0.02,31.38,0.16,63.84,7.66,93.95c27.36,109.83,115.99,171.33,241.15,171.33
			c1750.67-0.03,3501.33-0.05,5252-0.07c367.94,0,735.89,0.43,1103.83-0.25c145.32-0.27,237.31-114.25,233.52-234.56
			c-3.27-103.66-94.34-215.99-233.59-215.65c-810.88,2.03-1621.77,1-2432.65,1c-14.63,0-29.26,0-46.25,0 M4166.51,6569.81
			c-373.73,0-745.96,0-1118.93,0c7.67-19.47,20.13-37.33,20.95-55.7"/>
		<path d="M4310.5,6571.11c16.99,0,31.62,0,46.25,0c810.88,0,1621.77,1.04,2432.65-1c139.25-0.35,230.32,111.99,233.59,215.65
			c3.79,120.31-88.2,234.29-233.52,234.56c-367.94,0.68-735.89,0.24-1103.83,0.25c-1750.67,0.02-3501.33,0.03-5252,0.07
			c-125.16,0-213.8-61.49-241.15-171.33c-7.5-30.11-7.64-62.57-7.66-93.95c-0.4-775.73-0.33-1551.46-0.35-2327.19
			c-0.04-1182.34,0.09-2364.68-0.55-3547.02c-0.04-82.03,8.26-158.47,76.48-215.99c67.26-56.71,142.37-68.73,222.01-36.68
			c80.09,32.24,131.2,94.75,132.93,181.4c4.55,228.4,3.5,456.93,3.54,685.4c0.24,1436.62,0.17,2873.24,0.2,4309.87
			c0,11.3,0,22.6,0,41.37c45.5-19.52,86.3-35.39,125.7-54.18c217.38-103.62,379.47-268.92,515.21-463.49
			c190.26-272.73,331.51-571.64,467.42-873.45c190.65-423.36,346.69-860.44,513.28-1293.35
			c126.37-328.4,259.92-653.61,441.28-956.67c112.37-187.77,243.11-360.49,413.47-500.32c164.01-134.63,349.93-209.63,564.39-195.4
			c160.13,10.62,302.42,72.75,429.03,170.32c180.54,139.14,319.07,315.08,435.94,508.48c192.8,319.05,333.67,662.35,465.14,1009.85
			c192.16,507.93,383.48,1016.19,618.38,1506.62c104.25,217.65,211.67,433.63,354.12,629.44c136.79,188.05,293.82,356.08,508,457.54
			c82.57,39.12,170.99,66.03,257.1,97.52c143.96,52.65,181.14,228.02,68.44,327.4c-52.21,46.04-113.79,48.15-178.05,33.6
			c-288.78-65.38-528.66-214.44-733.47-425.25c-220.4-226.86-387.16-490.19-529.14-770.61
			c-215.31-425.27-390.96-867.58-562.12-1311.78c-135.44-351.49-259.5-707.64-422.29-1047.99
			c-93.34-195.15-196.78-385.26-340.94-548.4c-62.37-70.58-131.1-137.6-205.63-194.95c-150.39-115.73-299.18-109.5-448.25,7.3
			c-167.82,131.5-289.44,301.22-394.38,483.33c-147.93,256.71-260.46,530.01-367.51,805.64
			c-183.51,472.5-356.29,949.32-563.96,1412.13c-119.78,266.94-245.82,530.84-406.79,776.18
			c-122.35,186.48-259.83,360.49-430.08,506.4c-170.02,145.72-361.73,249.43-581.37,298.71c-3.27,0.73-6.31,2.49-11.18,4.48
			c0,107.05,0,214.26,0,323.48c759.11,0,1516.83,0,2274.88,0"/>
	</g>
</g>
</svg>
