<svg id="stderr" xmlns="http://www.w3.org/2000/svg" viewBox="0 0 7200 7200">
  <path d="M620.67,6565.25h52.11q3058.55,0,6117.1,0c137.25,0,231.87,101.62,228.4,245.62-2.52,104.95-90.94,206.45-189.07,214-46.73,3.59-93.8,2.69-140.71,2.69q-3104.86.15-6209.72-.25c-43,0-87.38,2.07-128.66-8.18-106.46-26.42-171-119.7-170.93-236.33q.27-1396.24.43-2792.49.12-1545.23.57-3090.44c0-45.8,2.42-93.24,13.52-137.07,27.6-109,124.71-170.15,239.11-156.92,93.88,10.86,179.81,99.2,182.85,202.5,5.46,185.17,4.66,370.59,4.69,555.91q.48,2576,.31,5152.05Z"/>
  <path d="M3751.66,1247.08V848.92H3794c128.45,0,256.9.26,385.33-.51a282.4,282.4,0,0,0,64.86-7.92c76.15-18.86,128.94-79.46,115.64-130.28-17.64-67.44-81-105.83-175.14-105.84q-594.68-.07-1189.34-.28c-39,0-72.59,7.23-101.35,25.48-57.66,36.58-75.74,88.25-48.78,139.09,25.91,48.84,88.16,79.7,165.31,80,128.44.57,256.88.2,385.33.23h43c0,129.92.26,257-.92,384.15l-.57,298.5V2704.33h-42.83c-128.45,0-256.91-.77-385.33.29-133.8,1.12-217.74,90.87-162.91,173.69,36,54.36,101.85,73.75,183.6,73.7q566.88-.3,1133.77-.24a504.91,504.91,0,0,0,58.92-3.52c93.36-11.07,158.28-80.86,135.74-145.18-21.52-61.39-88.24-98.53-178.57-98.7q-194.52-.35-389-.07h-39V1537.78Z"/>
  <g>
    <path d="M2892.19,6562.17H617.32V6238.69c4.87-2,7.9-3.74,11.17-4.48,219.64-49.28,411.35-153,581.37-298.71,170.25-145.91,307.73-319.93,430.08-506.4,161-245.34,287-509.25,406.79-776.18,207.68-462.82,380.45-939.63,564-1412.13,107.05-275.63,219.58-548.93,367.51-805.64,104.94-182.1,226.56-351.83,394.38-483.33,149.06-116.8,297.85-123,448.25-7.3,74.52,57.35,143.26,124.37,205.63,194.95,144.16,163.14,247.59,353.25,340.94,548.4,162.79,340.36,286.84,696.5,422.29,1048,171.16,444.2,346.8,886.51,562.12,1311.78,142,280.42,308.74,543.75,529.13,770.61,204.81,210.8,444.7,359.86,733.47,425.24,64.27,14.55,125.85,12.44,178.06-33.6,112.7-99.38,75.52-274.75-68.44-327.4-86.12-31.49-174.53-58.41-257.1-97.52-214.18-101.46-371.21-269.49-508-457.54-142.45-195.82-249.87-411.8-354.12-629.45-234.9-490.42-426.22-998.69-618.38-1506.62C4855,2843.87,4714.1,2500.56,4521.3,2181.51c-116.87-193.39-255.4-369.34-436-508.47-126.61-97.58-268.9-159.7-429-170.33-214.46-14.22-400.38,60.78-564.39,195.41-170.35,139.84-301.1,312.55-413.46,500.32-181.37,303.07-314.92,628.27-441.28,956.67-166.59,432.91-322.63,870-513.28,1293.35-135.92,301.8-277.16,600.72-467.42,873.45-135.74,194.57-297.84,359.87-515.22,463.49-39.4,18.78-80.2,34.66-125.7,54.18v-41.37q0-2154.93-.2-4309.87c0-228.47,1-457-3.54-685.4C610.1,716.29,559,653.78,478.9,621.54c-79.64-32-154.75-20-222,36.68-68.22,57.52-76.53,134-76.48,216q1,1773.51.55,3547,0,1163.6.36,2327.19c0,31.38.15,63.84,7.65,93.95,27.36,109.83,116,171.32,241.16,171.32l5252-.07q551.91,0,1103.83-.25c145.32-.26,237.31-114.25,233.52-234.55-3.27-103.66-94.34-216-233.59-215.65-810.88,2-1621.77,1-2432.65,1H4307m-144-1.31H3044.05c7.67-19.47,20.14-37.33,20.95-55.7" style="fill: #fff"/>
    <path d="M4307,6564.17h46.26c810.88,0,1621.77,1,2432.65-1,139.25-.35,230.32,112,233.59,215.65,3.79,120.3-88.2,234.29-233.52,234.55q-551.91,1-1103.83.25l-5252,.07c-125.17,0-213.8-61.49-241.16-171.32-7.5-30.11-7.64-62.57-7.65-93.95q-.62-1163.6-.36-2327.19-.06-1773.51-.55-3547c0-82,8.26-158.47,76.48-216,67.26-56.71,142.37-68.73,222-36.68,80.1,32.24,131.2,94.75,132.93,181.4,4.55,228.4,3.5,456.93,3.54,685.4q.36,2154.94.2,4309.87v41.37c45.5-19.52,86.3-35.4,125.7-54.18,217.38-103.62,379.48-268.92,515.22-463.49,190.26-272.73,331.5-571.65,467.42-873.45C1914.56,4025.1,2070.6,3588,2237.19,3155.11c126.36-328.4,259.91-653.6,441.28-956.67,112.36-187.77,243.11-360.48,413.46-500.32,164-134.63,349.93-209.63,564.39-195.41,160.13,10.63,302.42,72.75,429,170.33,180.55,139.13,319.08,315.08,436,508.47,192.8,319,333.67,662.36,465.14,1009.85,192.16,507.93,383.48,1016.2,618.38,1506.62,104.25,217.65,211.67,433.63,354.12,629.45,136.79,188,293.82,356.08,508,457.54,82.57,39.11,171,66,257.1,97.52,144,52.65,181.14,228,68.44,327.4-52.21,46-113.79,48.15-178.06,33.6-288.77-65.38-528.66-214.44-733.47-425.24-220.39-226.86-387.16-490.19-529.13-770.61-215.32-425.27-391-867.58-562.12-1311.78-135.45-351.49-259.5-707.63-422.29-1048-93.35-195.15-196.78-385.26-340.94-548.4-62.37-70.58-131.11-137.6-205.63-194.95-150.4-115.73-299.19-109.5-448.25,7.3-167.82,131.5-289.44,301.23-394.38,483.33-147.93,256.71-260.46,530-367.51,805.64-183.52,472.5-356.29,949.31-564,1412.13-119.78,266.93-245.82,530.84-406.79,776.18-122.35,186.47-259.83,360.49-430.08,506.4-170,145.72-361.73,249.43-581.37,298.71-3.27.74-6.3,2.5-11.17,4.48v323.48H2892.19"/>
  </g>
</svg>
