<svg id="percentile" xmlns="http://www.w3.org/2000/svg" viewBox="0 0 7200 7200">
  <g>
    <path d="M614.35,5839.58c0-18.77,0-30.07,0-41.37q0-2154.93-.2-4309.87c0-228.47,1-457-3.53-685.4-1.73-86.65-52.84-149.16-132.93-181.4-79.65-32-154.76-20-222,36.68-68.22,57.52-76.53,134-76.49,216q1,1773.51.56,3547,0,1163.6.35,2327.19c0,31.38.16,63.84,7.66,93.95,27.36,109.83,116,171.32,241.15,171.32l5252-.07q551.92,0,1103.84-.25c145.31-.26,237.3-114.25,233.51-234.55-3.26-103.66-94.33-216-233.59-215.65-810.88,2-1621.76,1-2432.65,1h-46.25c42-79,21.24-159.45,22.65-237.76.25-13.89-8.86-29-16.5-41.79a94,94,0,0,0-103-42.75c-33.19,8.39-68.26,44-66.58,77.59,4.07,81.19-18.25,164.53,19.44,243.4H3042.84c7.67-19.47,20.13-37.33,20.95-55.7,2.69-60.8,4.22-122,.29-182.63-3-46.62-48.24-83.07-93.19-83.84-50.22-.86-88.78,26.78-94.82,78.91-9.42,81.43-19.28,164.07,14.91,242.57H616.1V6238.69c4.87-2,7.91-3.74,11.18-4.48,219.64-49.28,411.35-153,581.37-298.71,170.25-145.91,307.73-319.93,430.08-506.4,161-245.34,287-509.25,406.79-776.18,207.68-462.82,380.45-939.63,564-1412.13,107.05-275.63,219.59-548.93,367.52-805.64,104.93-182.1,226.56-351.83,394.37-483.33,149.07-116.8,297.86-123,448.25-7.3,74.53,57.35,143.26,124.37,205.63,194.95,144.17,163.14,247.6,353.25,340.94,548.4,162.79,340.36,286.85,696.5,422.29,1048,171.16,444.2,346.81,886.51,562.12,1311.78,142,280.42,308.74,543.75,529.14,770.61,204.8,210.8,444.69,359.86,733.47,425.24,64.27,14.55,125.84,12.44,178.05-33.6,112.71-99.38,75.52-274.75-68.44-327.4-86.11-31.49-174.52-58.41-257.1-97.52-214.17-101.46-371.2-269.49-508-457.54-142.44-195.82-249.86-411.8-354.12-629.45-234.9-490.42-426.21-998.69-618.38-1506.62-131.46-347.49-272.34-690.8-465.14-1009.85-116.87-193.39-255.4-369.34-435.94-508.47-126.61-97.58-268.91-159.7-429-170.33-214.45-14.22-400.38,60.78-564.38,195.41-170.36,139.84-301.1,312.55-413.47,500.32-181.36,303.07-314.91,628.27-441.28,956.67-166.59,432.91-322.62,870-513.28,1293.35-135.91,301.8-277.16,600.72-467.42,873.45-135.74,194.57-297.83,359.87-515.21,463.49C700.65,5804.18,659.86,5820.06,614.35,5839.58ZM2747.89,3330.32c-.87,122.29,96.46,221.93,217.81,223,115.2,1,217.88-101.83,219.4-219.74,1.54-118.47-97.9-220.94-215.35-221.91C2842,3110.59,2748.8,3202.42,2747.89,3330.32Zm1704,.41c.64-121.65-94.85-215.58-215.46-220.08-116.1-4.33-220.85,98.81-221.52,218.83-.66,119.06,101.24,222.83,218.9,223.69C4353.15,3554,4451.25,3454,4451.91,3330.73ZM3065.62,4392.17c0-24.6.32-49.2-.07-73.79-.83-52.77-39.28-97.92-86.9-102.55-52.32-5.09-97.72,24.94-103.56,81.7-6.52,63.35-5.91,128.5.94,191.86,6,55.8,50,82.91,105.86,77.87,43.5-3.93,82.25-48.83,83.57-97.78C3066.16,4443.73,3065.59,4417.94,3065.62,4392.17Zm0,506.12c0-26.89.79-53.81-.17-80.67-1.69-47.22-41-89.79-86.74-95.38-48-5.86-96.76,24.22-101.85,74.77-6.6,65.64-7.21,132.88-.84,198.5,5.28,54.54,52.32,83.61,105.85,78,43.48-4.55,82.1-49.34,83.63-98.07C3066.28,4949.76,3065.61,4924,3065.59,4898.29Zm0-1008.89c0-27,.71-53.92-.15-80.84-1.62-50.93-42.07-93.72-92.12-98.56-43.18-4.18-92.22,28.91-96.82,77.76-6.18,65.74-6.42,133,.29,198.67,5.38,52.53,51.51,79.65,105.21,74.59,42-4,81.78-48.34,83.4-94.29C3066.32,3941,3065.58,3915.18,3065.61,3889.4Zm0,1513c0-22.2.15-44.39,0-66.58-.47-58.93-40.36-105.39-92.2-107.56-56.45-2.36-100,38.12-102.91,99.89-2.39,50.11-2.36,100.51-.07,150.63,2.77,60.58,45,102,98.76,101,54.31-1,95.87-47.18,96.41-107.32C3065.8,5449.12,3065.62,5425.76,3065.62,5402.4Zm0,507.75c0-23.42.18-46.85,0-70.27-.51-57.88-39.47-103.12-90.56-105.39-58.37-2.6-100.68,35.32-104.23,98.32a1457.74,1457.74,0,0,0-.15,151c2.86,60,47.17,103.52,99.28,102,54.46-1.59,95.23-47.93,95.67-108.92C3065.76,5954.66,3065.62,5932.41,3065.61,5910.15ZM4141.38,4392.66c0,24.55-.08,49.09,0,73.64.22,57.56,34.6,98.74,84.29,101.09,55.58,2.62,101.87-37,104.56-94.08,2.53-53.65,2.22-107.58.06-161.26-2.26-56.05-47-97.45-99.65-96.3-53.34,1.18-88.89,40.84-89.23,99.76C4141.27,4341.23,4141.4,4367,4141.38,4392.66Zm0,503.85c0,24.58,2.42,49.46-.5,73.7-6.25,51.87,41.3,103.26,86.64,103.74,55.25.58,99.94-38.34,102.58-96.91,2.37-52.58,2.41-105.42.1-158-2.49-56.5-47.5-98.33-99.72-97-53.89,1.34-89,42.37-89.1,104.25C4141.35,4849.68,4141.39,4873.09,4141.4,4896.51Zm0,505.48c0,25.75-.08,51.5,0,77.26.22,57.5,36.82,98.59,89.45,100.54,49.87,1.84,96.6-39.75,99.29-93.4s2.51-107.76,0-161.48c-2.74-57.29-46.91-98.11-99.39-96.66-54.43,1.5-89.18,41.75-89.33,103.51Q4141.31,5366.88,4141.39,5402Zm0-1516.35c0,25.71-.17,51.42,0,77.12.42,55.5,37.19,96.95,87.23,98.56,53.58,1.73,99.06-38,101.64-93.29,2.5-53.64,2.19-107.55,0-161.22-2.21-55.18-50.3-99.93-100-97-51.94,3.1-88.62,45.2-88.89,102.17C4141.29,3836.56,4141.39,3861.1,4141.39,3885.64Zm0,2022.64c0,24.55-.06,49.1,0,73.64.17,58.05,38.52,101.82,91,103.9,49.21,2,94.9-40.18,97.64-95.13,2.68-53.63,3-107.65-.16-161.23-3.5-59.27-47.76-97.31-103.87-95-51.18,2.1-84.47,42.89-84.59,103.7Q4141.32,5873.22,4141.39,5908.28Z" style="fill: #fff"/>
    <path d="M614.35,5839.58c45.51-19.52,86.3-35.4,125.71-54.18,217.38-103.62,379.47-268.92,515.21-463.49,190.26-272.73,331.51-571.65,467.42-873.45C1913.35,4025.1,2069.38,3588,2236,3155.11c126.37-328.4,259.92-653.6,441.28-956.67,112.37-187.77,243.11-360.48,413.47-500.32,164-134.63,349.93-209.63,564.38-195.41,160.13,10.63,302.43,72.75,429,170.33,180.54,139.13,319.07,315.08,435.94,508.47,192.8,319,333.68,662.36,465.14,1009.85C5177.39,3699.29,5368.7,4207.56,5603.6,4698c104.26,217.65,211.68,433.63,354.12,629.45,136.8,188,293.83,356.08,508,457.54,82.58,39.11,171,66,257.1,97.52,144,52.65,181.15,228,68.44,327.4-52.21,46-113.78,48.15-178.05,33.6-288.78-65.38-528.67-214.44-733.47-425.24-220.4-226.86-387.16-490.19-529.14-770.61-215.31-425.27-391-867.58-562.12-1311.78-135.44-351.49-259.5-707.63-422.29-1048-93.34-195.15-196.77-385.26-340.94-548.4-62.37-70.58-131.1-137.6-205.63-194.95-150.39-115.73-299.18-109.5-448.25,7.3-167.81,131.5-289.44,301.23-394.37,483.33-147.93,256.71-260.47,530-367.52,805.64-183.51,472.5-356.28,949.31-564,1412.13-119.78,266.93-245.82,530.84-406.79,776.18-122.35,186.47-259.83,360.49-430.08,506.4-170,145.72-361.73,249.43-581.37,298.71-3.27.74-6.31,2.5-11.18,4.48v323.48H2891c-34.19-78.5-24.33-161.14-14.91-242.57,6-52.13,44.6-79.77,94.82-78.91,45,.77,90.17,37.22,93.19,83.84,3.93,60.65,2.4,121.83-.29,182.63-.82,18.37-13.28,36.23-20.95,55.7H4161.77c-37.69-78.87-15.37-162.21-19.44-243.4-1.68-33.58,33.39-69.2,66.58-77.59a94,94,0,0,1,103,42.75c7.64,12.82,16.75,27.9,16.5,41.79-1.41,78.31,19.4,158.8-22.65,237.76H4352c810.89,0,1621.77,1,2432.65-1,139.26-.35,230.33,112,233.59,215.65,3.79,120.3-88.2,234.29-233.51,234.55q-551.92,1-1103.84.25l-5252,.07c-125.16,0-213.79-61.49-241.15-171.32-7.5-30.11-7.64-62.57-7.66-93.95q-.6-1163.6-.35-2327.19-.06-1773.51-.56-3547c0-82,8.27-158.47,76.49-216,67.25-56.71,142.36-68.73,222-36.68,80.09,32.24,131.2,94.75,132.93,181.4,4.55,228.4,3.49,456.93,3.53,685.4q.36,2154.94.2,4309.87C614.36,5809.51,614.35,5820.81,614.35,5839.58Z"/>
    <path d="M2747.89,3330.32c.91-127.9,94.08-219.73,221.86-218.67,117.45,1,216.89,103.44,215.35,221.91-1.52,117.91-104.2,220.74-219.4,219.74C2844.35,3552.25,2747,3452.61,2747.89,3330.32Z"/>
    <path d="M4451.91,3330.73c-.66,123.25-98.76,223.31-218.08,222.44-117.66-.86-219.56-104.63-218.9-223.69.67-120,105.42-223.16,221.52-218.83C4357.06,3115.15,4452.55,3209.08,4451.91,3330.73Z"/>
    <path d="M3065.6,4392.17c0,25.77.56,51.56-.14,77.31-1.32,49-40.07,93.85-83.57,97.78-55.85,5-99.83-22.07-105.86-77.87-6.85-63.36-7.46-128.51-.94-191.86,5.84-56.76,51.24-86.79,103.56-81.7,47.62,4.63,86.07,49.78,86.9,102.55C3065.94,4343,3065.62,4367.57,3065.6,4392.17Z"/>
    <path d="M3065.6,4898.29c0,25.73.68,51.47-.13,77.17-1.53,48.73-40.15,93.52-83.63,98.07-53.53,5.59-100.57-23.48-105.85-78-6.37-65.62-5.76-132.86.84-198.5,5.09-50.55,53.84-80.63,101.85-74.77,45.78,5.59,85.05,48.16,86.74,95.38C3066.38,4844.48,3065.59,4871.4,3065.6,4898.29Z"/>
    <path d="M3065.6,3889.4c0,25.78.72,51.59-.18,77.33-1.62,45.95-41.38,90.32-83.4,94.29-53.7,5.06-99.83-22.06-105.21-74.59-6.71-65.65-6.47-132.93-.29-198.67,4.6-48.85,53.64-81.94,96.82-77.76,50,4.84,90.5,47.63,92.12,98.56C3066.32,3835.48,3065.61,3862.45,3065.6,3889.4Z"/>
    <path d="M3065.62,5402.4c0,23.36.18,46.72,0,70.08-.54,60.14-42.1,106.32-96.41,107.32-53.71,1-96-40.44-98.76-101-2.29-50.12-2.32-100.52.07-150.63,2.94-61.77,46.46-102.25,102.91-99.89,51.84,2.17,91.73,48.63,92.2,107.56C3065.77,5358,3065.62,5380.2,3065.62,5402.4Z"/>
    <path d="M3065.62,5910.15c0,22.26.14,44.51,0,66.77-.44,61-41.21,107.33-95.67,108.92-52.11,1.53-96.42-42-99.28-102a1457.74,1457.74,0,0,1,.15-151c3.55-63,45.86-100.92,104.23-98.32,51.09,2.27,90.05,47.51,90.56,105.39C3065.79,5863.3,3065.61,5886.73,3065.62,5910.15Z"/>
    <path d="M4141.39,4392.66c0-25.71-.12-51.43,0-77.15.34-58.92,35.89-98.58,89.23-99.76,52.64-1.15,97.39,40.25,99.65,96.3,2.16,53.68,2.47,107.61-.06,161.26-2.69,57-49,96.7-104.56,94.08-49.69-2.35-84.07-43.53-84.29-101.09C4141.3,4441.75,4141.38,4417.21,4141.39,4392.66Z"/>
    <path d="M4141.39,4896.51c0-23.42,0-46.83,0-70.25.13-61.88,35.21-102.91,89.1-104.25,52.22-1.3,97.23,40.53,99.72,97,2.31,52.58,2.27,105.42-.1,158-2.64,58.57-47.33,97.49-102.58,96.91-45.34-.48-92.89-51.87-86.64-103.74C4143.82,4946,4141.4,4921.09,4141.39,4896.51Z"/>
    <path d="M4141.38,5402c0-23.41-.05-46.82,0-70.23.15-61.76,34.9-102,89.33-103.51,52.48-1.45,96.65,39.37,99.39,96.66,2.56,53.72,2.73,107.77,0,161.48s-49.42,95.24-99.29,93.4c-52.63-1.95-89.23-43-89.45-100.54C4141.31,5453.49,4141.39,5427.74,4141.38,5402Z"/>
    <path d="M4141.39,3885.64c0-24.54-.1-49.08,0-73.62.27-57,37-99.07,88.89-102.17,49.74-3,97.83,41.78,100,97,2.15,53.67,2.46,107.58,0,161.22-2.58,55.34-48.06,95-101.64,93.29-50-1.61-86.81-43.06-87.23-98.56C4141.22,3937.06,4141.39,3911.35,4141.39,3885.64Z"/>
    <path d="M4141.38,5908.28c0-23.37,0-46.75,0-70.13.12-60.81,33.41-101.6,84.59-103.7,56.11-2.3,100.37,35.74,103.87,95,3.17,53.58,2.84,107.6.16,161.23-2.74,55-48.43,97.09-97.64,95.13-52.44-2.08-90.79-45.85-91-103.9C4141.33,5957.38,4141.39,5932.83,4141.38,5908.28Z"/>
  </g>
</svg>
