<svg id="std_dev" data-name="std dev" xmlns="http://www.w3.org/2000/svg" viewBox="0 0 7200 7200">
  <polygon points="2629.95 6140.48 2629.95 2783.53 3359.72 1782.69 3713.16 1699.29 4277.15 2158.01 4527.35 2637.57 4527.35 6140.48 2629.95 6140.48"/>
  <g>
    <path d="M2895.71,6569.11H620.84V6245.64c4.86-2,7.9-3.75,11.17-4.48,219.64-49.28,411.35-153,581.37-298.71,170.25-145.92,307.73-319.93,430.08-506.41,161-245.33,287-509.24,406.79-776.18,207.68-462.81,380.45-939.63,564-1412.12,107.05-275.63,219.58-548.93,367.51-805.64,104.94-182.11,226.56-351.83,394.38-483.33,149.06-116.8,297.85-123,448.25-7.3,74.52,57.35,143.26,124.37,205.63,195,144.16,163.14,247.59,353.24,340.94,548.4,162.79,340.35,286.84,696.5,422.29,1048C4964.38,4187,5140,4629.32,5355.34,5054.59c142,280.42,308.74,543.75,529.13,770.6,204.81,210.81,444.7,359.86,733.47,425.25,64.27,14.55,125.85,12.44,178.06-33.6,112.7-99.39,75.52-274.75-68.44-327.4-86.12-31.5-174.53-58.41-257.11-97.53-214.17-101.45-371.2-269.49-508-457.54-142.44-195.82-249.86-411.79-354.11-629.44-234.9-490.43-426.22-998.69-618.38-1506.62-131.47-347.5-272.34-690.8-465.14-1009.85-116.87-193.4-255.4-369.34-435.95-508.48-126.61-97.57-268.9-159.7-429-170.32-214.46-14.23-400.38,60.78-564.39,195.4-170.35,139.84-301.1,312.56-413.46,500.33-181.37,303.06-314.92,628.27-441.29,956.67-166.58,432.91-322.62,870-513.27,1293.35-135.92,301.8-277.16,600.72-467.42,873.44-135.74,194.58-297.84,359.88-515.22,463.5-39.41,18.78-80.2,34.66-125.7,54.17v-41.36q0-2154.95-.2-4309.87c0-228.48,1-457-3.54-685.4-1.73-86.66-52.83-149.17-132.93-181.4-79.64-32.06-154.75-20-222,36.68-68.22,57.51-76.53,134-76.48,216q1,1773.52.55,3547,0,1163.59.36,2327.18c0,31.38.15,63.84,7.65,94,27.36,109.84,116,171.33,241.16,171.33q2626-.06,5252-.07,551.91,0,1103.83-.25c145.32-.27,237.31-114.25,233.52-234.56-3.27-103.65-94.34-216-233.59-215.64-810.88,2-1621.77,1-2432.65,1H4310.5m-144-1.3H3047.57c7.67-19.47,20.14-37.33,20.95-55.71" style="fill: #fff"/>
    <path d="M4310.5,6571.11h46.26c810.88,0,1621.77,1,2432.65-1,139.25-.35,230.32,112,233.59,215.64,3.79,120.31-88.2,234.29-233.52,234.56q-551.91,1-1103.83.25-2626,0-5252,.07c-125.17,0-213.8-61.49-241.16-171.33-7.5-30.11-7.64-62.57-7.65-94q-.61-1163.59-.36-2327.18-.06-1773.51-.55-3547c-.05-82,8.26-158.47,76.48-216,67.26-56.71,142.37-68.74,222-36.68,80.1,32.23,131.2,94.74,132.93,181.4,4.55,228.4,3.5,456.92,3.54,685.4q.36,2154.93.2,4309.87v41.36c45.5-19.51,86.29-35.39,125.7-54.17,217.38-103.62,379.48-268.92,515.22-463.5,190.26-272.72,331.5-571.64,467.42-873.44,190.65-423.36,346.69-860.44,513.27-1293.35,126.37-328.4,259.92-653.61,441.29-956.67,112.36-187.77,243.11-360.49,413.46-500.33,164-134.62,349.93-209.63,564.39-195.4,160.13,10.62,302.42,72.75,429,170.32,180.55,139.14,319.08,315.08,435.95,508.48,192.8,319.05,333.67,662.35,465.14,1009.85,192.16,507.93,383.48,1016.19,618.38,1506.62,104.25,217.65,211.67,433.62,354.11,629.44,136.8,188.05,293.83,356.09,508,457.54,82.58,39.12,171,66,257.11,97.53,144,52.65,181.14,228,68.44,327.4-52.21,46-113.79,48.15-178.06,33.6-288.77-65.39-528.66-214.44-733.47-425.25-220.39-226.85-387.16-490.18-529.13-770.6-215.32-425.27-391-867.59-562.12-1311.78-135.45-351.49-259.5-707.64-422.29-1048-93.35-195.16-196.78-385.26-340.94-548.4-62.37-70.58-131.11-137.6-205.63-195-150.4-115.73-299.19-109.5-448.25,7.3-167.82,131.5-289.44,301.22-394.38,483.33-147.93,256.71-260.46,530-367.51,805.64-183.52,472.49-356.29,949.31-564,1412.12-119.78,266.94-245.82,530.85-406.79,776.18-122.35,186.48-259.83,360.49-430.08,506.41-170,145.71-361.73,249.43-581.37,298.71-3.27.73-6.31,2.49-11.17,4.48v323.47H2895.71"/>
  </g>
</svg>
