<svg xmlns="http://www.w3.org/2000/svg" xmlns:xlink="http://www.w3.org/1999/xlink" width="11in" height="8.5in" viewBox="0 0 792 612">
  <defs>
    <style>
      .cls-1 {
        fill: url(#linear-gradient);
      }

      .cls-2, .cls-3, .cls-6, .cls-8 {
        fill: #fff;
      }

      .cls-3, .cls-6 {
        isolation: isolate;
      }

      .cls-3 {
        opacity: 0.75;
      }

      .cls-4 {
        font-size: 24.48px;
        fill: #000f42;
      }

      .cls-4, .cls-8 {
        font-family: Arial-BoldMT, Arial;
        font-weight: 700;
      }

      .cls-5 {
        letter-spacing: -0.02em;
      }

      .cls-6 {
        opacity: 0.25;
      }

      .cls-7 {
        fill: none;
        stroke: #fff;
        stroke-miterlimit: 10;
        stroke-width: 1.5px;
      }

      .cls-8 {
        font-size: 18px;
      }

      .cls-9 {
        letter-spacing: -0.07em;
      }
    </style>
    <linearGradient id="linear-gradient" x1="395.89" y1="805.28" x2="395.89" y2="4.55" gradientTransform="matrix(1, 0, 0, -1, 0, 614)" gradientUnits="userSpaceOnUse">
      <stop offset="0" stop-color="#6aa8c4"/>
      <stop offset="1" stop-color="#aed4e5"/>
    </linearGradient>
  </defs>
  <g id="background">
    <rect id="_Path_" data-name=" Path " class="cls-1" x="-0.11" y="-0.5" width="792" height="612"/>
    <g id="SBNMS-logo">
      <g>
        <path class="cls-2" d="M754.57,575.33a12.26,12.26,0,0,1,9.23,1.12,26.23,26.23,0,0,0,2.5-6.2,13.89,13.89,0,0,0-11.7-1.36c-8.21,2.56-13.22,9.81-25.7,9.81a15.34,15.34,0,0,1-7.57-1.86,14.72,14.72,0,0,1-1.8-1.18,16.29,16.29,0,0,1-3.68-4A26.27,26.27,0,0,0,762.16,579a12.41,12.41,0,0,0-7-.94c-7.69,1.1-13.26,7-24.34,5.08a14.28,14.28,0,0,1-2-.48,14,14,0,0,0,2.14.28c11.22.69,16.13-5.73,23.66-7.64Z"/>
        <path class="cls-2" d="M741.78,572.66s-22.47,8.48-27.17-9.39v.36c.43,3.43,3.73,19.73,27.18,9Z"/>
        <path class="cls-2" d="M740.84,537.47A26.28,26.28,0,0,0,716,555.19l-.12.36-.18.59c-.1.33-.19.67-.28,1v0a24.65,24.65,0,0,0-.55,2.87c.87,3.46,3.83,11.18,13.15,12.31,12.07,1.46,17.78-5.15,26-6.73a13.17,13.17,0,0,1,12.44,3.94.24.24,0,0,1,0-.08,26.29,26.29,0,0,0-25.65-32ZM753.91,556c-2.78,2.23-5.61,4.41-2.85,8.57-3.5,1.11-6.92,3.3-10.58,4.7a11.2,11.2,0,0,0,.41-5c-.56-4.17-7.93-4.47-12-7.51s-5.42-9.43-4.32-10.57,1.28,2.12,7.75,3.5a26.49,26.49,0,0,0,4.51.55,6.88,6.88,0,0,1,6.36,4,4.09,4.09,0,0,0-.85-1.83s-.41-2.15,2.72-2.44,6.41-.37,7-2.46.23-4,3.31-1.1,1.46,7.29-1.44,9.61Z"/>
      </g>
      <g>
        <path class="cls-2" d="M766.69,545.07a1.93,1.93,0,1,1,1.93-1.93A1.93,1.93,0,0,1,766.69,545.07Zm0-4.35a2.41,2.41,0,1,0,2.41,2.41A2.41,2.41,0,0,0,766.69,540.72Z"/>
        <path class="cls-2" d="M766.76,543.33h-.54V542.2h.54A.57.57,0,1,1,766.76,543.33Zm0-1.45h-.89v2.51h.4v-.74h.68l.42.74h.42l-.48-.87C768,543.19,768,541.88,766.71,541.88Z"/>
      </g>
    </g>
    <g id="title">
      <rect class="cls-3" x="-0.11" y="35.5" width="241.2" height="36"/>
      <text id="Example" class="cls-4" transform="translate(43.61 62.31)">Example <tspan class="cls-5" x="107.49" y="0">T</tspan><tspan x="122.01" y="0">itle</tspan></text>
    </g>
  </g>
  <g id="icons">
    <g id="I_nine" data-name="I nine">
      <circle class="cls-6" cx="660.3" cy="411.04" r="36" transform="translate(148.81 996.97) rotate(-80.78)"/>
      <circle class="cls-7" cx="660.3" cy="411.04" r="36" transform="translate(148.81 996.97) rotate(-80.78)"/>
    </g>
    <g id="H_eight" data-name="H eight">
      <circle class="cls-6" cx="396.39" cy="411.04" r="36" transform="translate(-72.83 736.47) rotate(-80.78)"/>
      <circle class="cls-7" cx="396.39" cy="411.04" r="36" transform="translate(-72.83 736.47) rotate(-80.78)"/>
    </g>
    <g id="G_seven" data-name="G seven">
      <circle class="cls-6" cx="132.48" cy="411.04" r="36" transform="translate(-294.47 475.96) rotate(-80.78)"/>
      <circle class="cls-7" cx="132.48" cy="411.04" r="36" transform="translate(-294.47 475.96) rotate(-80.78)"/>
    </g>
    <g id="F_six" data-name="F six">
      <circle class="cls-6" cx="660.3" cy="275.11" r="36" transform="translate(282.97 882.82) rotate(-80.78)"/>
      <circle class="cls-7" cx="660.3" cy="275.11" r="36" transform="translate(282.97 882.82) rotate(-80.78)"/>
    </g>
    <g id="E_five" data-name="E five">
      <circle class="cls-6" cx="396.39" cy="275.11" r="36" transform="translate(61.34 622.32) rotate(-80.78)"/>
      <circle class="cls-7" cx="396.39" cy="275.11" r="36" transform="translate(61.34 622.32) rotate(-80.78)"/>
    </g>
    <g id="D_four" data-name="D four">
      <circle class="cls-6" cx="132.48" cy="275.11" r="36" transform="translate(-160.3 361.81) rotate(-80.78)"/>
      <circle class="cls-7" cx="132.48" cy="275.11" r="36" transform="translate(-160.3 361.81) rotate(-80.78)"/>
    </g>
    <g id="C_three" data-name="C three">
      <circle class="cls-6" cx="660.3" cy="140.57" r="36" transform="translate(415.78 769.83) rotate(-80.78)"/>
      <circle class="cls-7" cx="660.3" cy="140.57" r="36" transform="translate(415.78 769.83) rotate(-80.78)"/>
    </g>
    <g id="B_two" data-name="B two">
      <circle class="cls-6" cx="396.39" cy="140.57" r="36" transform="translate(194.14 509.33) rotate(-80.78)"/>
      <circle class="cls-7" cx="396.39" cy="140.57" r="36" transform="translate(194.14 509.33) rotate(-80.78)"/>
    </g>
    <g id="A_one" data-name="A one">
      <circle class="cls-6" cx="132.48" cy="140.57" r="36" transform="translate(-27.5 248.82) rotate(-80.78)"/>
      <circle class="cls-7" cx="132.48" cy="140.57" r="36" transform="translate(-27.5 248.82) rotate(-80.78)"/>
    </g>
  </g>
  <g id="text">
    <text id="nine" class="cls-8" transform="translate(601.28 472.02)">Example Nine</text>
    <text id="eight" class="cls-8" transform="translate(334.38 472.02)">Example Eight</text>
    <text id="seven" class="cls-8" transform="translate(66.44 472.02)">Example Seven</text>
    <text id="six" class="cls-8" transform="translate(607.28 336.09)">Example Six</text>
    <text id="five" class="cls-8" transform="translate(338.86 336.09)">Example Five</text>
    <text id="four" class="cls-8" transform="translate(72.96 336.09)">Example Four</text>
    <text id="three" class="cls-8" transform="translate(596.28 201.55)">Example Three</text>
    <text id="two" class="cls-8" transform="translate(339.54 201.55)">Example <tspan class="cls-9" x="79.04" y="0">T</tspan><tspan x="88.7" y="0">wo</tspan></text>
    <text id="one" class="cls-8" transform="translate(75.45 201.55)">Example One</text>
  </g>
</svg>
